<svg width="217" height="60" viewBox="0 0 217 60" fill="none" xmlns="http://www.w3.org/2000/svg">
<g clip-path="url(#clip0)">
<path d="M56.687 18.1874C55.1561 14.623 53.0312 11.4242 50.3808 8.7281C47.7304 6.03199 44.5773 3.88423 41.0586 2.33054C37.5171 0.776847 33.6557 0 29.5659 0C25.5446 0 21.706 0.776847 18.1188 2.33054C14.5545 3.88423 11.3785 6.03199 8.68241 8.7281C5.96344 11.4242 3.83854 14.6002 2.30769 18.1874C0.776847 21.7746 0 25.7045 0 29.8629C0 33.9299 0.776847 37.837 2.30769 41.4699C3.83854 45.08 5.96344 48.3244 8.68241 51.0434C11.3785 53.7852 14.5545 55.9558 18.1417 57.5095C21.7289 59.0632 25.5674 59.8401 29.5887 59.8401H59.0175V29.8629C58.9947 25.7045 58.2178 21.7746 56.687 18.1874ZM14.9886 19.0327C14.9886 17.342 16.3595 15.9711 18.0503 15.9711H23.6024C25.2932 15.9711 26.6641 17.342 26.6641 19.0327V24.5849C26.6641 26.2757 25.2932 27.6466 23.6024 27.6466H18.0503C16.3595 27.6466 14.9886 26.2757 14.9886 24.5849V19.0327ZM44.8515 40.7616C44.8515 42.4524 43.4806 43.8005 41.8126 43.8005H36.2833C34.5925 43.8005 33.2445 42.4296 33.2445 40.7616V35.2094C33.2445 33.5187 34.6154 32.1706 36.2833 32.1706H41.8126C43.5034 32.1706 44.8515 33.5415 44.8515 35.2094V40.7616ZM46.8621 22.62C46.8621 24.6992 45.1714 26.3899 43.0922 26.3899H40.0076C38.8423 26.3899 37.6999 26.5499 36.5803 26.8926C35.0038 27.3724 32.9931 28.2864 31.4851 30.0229C30.4341 31.2567 29.6344 32.3991 29.0632 33.3816C27.9893 35.2323 27.441 37.3115 27.441 39.4364V44.0746C27.441 46.1767 25.7502 47.8675 23.6481 47.8675H16.7708C14.6687 47.8675 12.9779 46.1767 12.9779 44.0746V37.1744C12.9779 35.0724 14.6687 33.3816 16.7708 33.3816H21.0434C23.5339 33.3816 26.0015 32.6504 28.035 31.1881C28.789 30.6398 29.543 29.9772 30.1828 29.1546C32.1249 26.6413 32.4219 23.7167 32.4676 22.5286V15.7426C32.4676 13.6634 34.1584 11.9726 36.2376 11.9726H43.115C45.1942 11.9726 46.885 13.6634 46.885 15.7426V22.62H46.8621Z" fill="white"/>
<path d="M132.726 29.6801C131.104 28.0807 129.208 26.8012 127.083 25.8873C124.958 24.9733 122.627 24.4935 120.16 24.4935C117.738 24.4935 115.43 24.9505 113.282 25.8873C111.135 26.8012 109.238 28.0807 107.639 29.6801C106.039 31.2795 104.76 33.1759 103.846 35.278C102.932 37.4029 102.452 39.7334 102.452 42.2011C102.452 44.623 102.909 46.9307 103.846 49.0785C104.76 51.2262 106.039 53.1226 107.639 54.7449C109.238 56.3671 111.135 57.6695 113.282 58.5834C115.43 59.4973 117.761 59.9772 120.16 59.9772C122.627 59.9772 124.958 59.5202 127.083 58.5834C129.208 57.6695 131.104 56.39 132.726 54.7677C134.349 53.1455 135.651 51.2262 136.565 49.0785C137.479 46.9307 137.959 44.6002 137.959 42.2011C137.959 39.7334 137.502 37.4029 136.565 35.278C135.651 33.1759 134.349 31.2795 132.726 29.6801ZM128.934 42.2011C128.934 43.412 128.705 44.5545 128.248 45.6055C127.791 46.6794 127.174 47.6162 126.374 48.4159C125.598 49.1927 124.638 49.8325 123.564 50.2894C121.439 51.1805 118.857 51.1805 116.732 50.2894C115.659 49.8325 114.722 49.2155 113.922 48.4159C113.145 47.639 112.505 46.6794 112.048 45.6055C111.592 44.5316 111.363 43.3892 111.363 42.2011C111.363 41.013 111.592 39.8705 112.026 38.8424C112.483 37.7913 113.1 36.8545 113.899 36.0777C114.676 35.3008 115.636 34.6611 116.71 34.2041C117.783 33.7472 118.926 33.5187 120.114 33.5187C121.302 33.5187 122.467 33.7472 123.518 34.2041C124.592 34.6611 125.529 35.278 126.329 36.0777C127.128 36.8774 127.745 37.7913 128.202 38.8424C128.705 39.8705 128.934 41.013 128.934 42.2011Z" fill="white"/>
<path d="M86.4812 25.7501C84.3335 26.6641 82.437 27.9436 80.8148 29.543C79.1926 31.1424 77.8902 33.0388 76.9763 35.1637C76.0623 37.2886 75.5825 39.6191 75.5825 42.0868V59.0175C75.5825 59.4744 75.9709 59.8629 76.4279 59.8629H83.8308C84.2878 59.8629 84.6762 59.4744 84.6762 59.0175V42.0868C84.6762 40.8987 84.9047 39.7562 85.3388 38.7052C85.7958 37.6542 86.4127 36.7174 87.2124 35.9405C88.0121 35.1408 88.926 34.5239 89.977 34.067C91.0052 33.6329 92.1476 33.4044 93.3358 33.4044H97.0372C97.4942 33.4044 97.8826 33.0159 97.8826 32.559V25.2246C97.8826 24.7677 97.4942 24.3792 97.0372 24.3792H93.3358C90.9595 24.3564 88.629 24.8134 86.4812 25.7501Z" fill="white"/>
<path d="M207.35 25.6131V58.5834C207.35 59.2689 207.921 59.8401 208.606 59.8401H215.05C215.735 59.8401 216.306 59.2689 216.306 58.5834V25.6131C216.306 24.9277 215.735 24.3564 215.05 24.3564H208.606C207.921 24.3564 207.35 24.9277 207.35 25.6131Z" fill="white"/>
<path d="M198.073 29.5659C196.474 27.9665 194.577 26.687 192.452 25.773C190.305 24.8591 187.974 24.3793 185.506 24.3793C183.084 24.3793 180.777 24.8362 178.606 25.773C176.458 26.687 174.539 27.9665 172.917 29.5659C171.295 31.1653 169.992 33.0617 169.078 35.1866C168.164 37.3115 167.685 39.6649 167.685 42.1325C167.685 44.5544 168.142 46.8621 169.078 49.0327C169.992 51.1805 171.295 53.0998 172.917 54.722C174.539 56.3442 176.458 57.6466 178.606 58.5605C180.754 59.4745 183.084 59.9543 185.506 59.9543H203.26V42.1325C203.26 39.6649 202.803 37.3343 201.866 35.1866C200.952 33.0617 199.672 31.1881 198.073 29.5659ZM185.529 50.9063C184.318 50.9063 183.176 50.6778 182.102 50.2209C181.028 49.7639 180.091 49.147 179.292 48.3473C178.492 47.5704 177.875 46.6108 177.418 45.5369C176.961 44.4631 176.733 43.3206 176.733 42.1097C176.733 40.9215 176.961 39.7791 177.395 38.7281C177.852 37.6771 178.469 36.7403 179.269 35.9406C180.068 35.1409 181.005 34.524 182.079 34.067C183.153 33.61 184.295 33.3816 185.506 33.3816C186.694 33.3816 187.837 33.61 188.888 34.0442C189.939 34.5011 190.876 35.118 191.675 35.9177C192.475 36.7174 193.092 37.6542 193.549 38.7052C194.006 39.7563 194.212 40.8758 194.212 42.0868V50.8606H185.529V50.9063Z" fill="white"/>
<path d="M153.405 12.521C151.257 13.4349 149.36 14.7144 147.738 16.3138C146.116 17.9132 144.814 19.8096 143.9 21.9345C142.986 24.0594 142.506 26.39 142.506 28.8576V59.3831C142.506 59.6573 142.712 59.8629 142.986 59.8629H151.051C151.325 59.8629 151.531 59.6573 151.531 59.3831V42.9094C151.531 42.6352 151.737 42.4296 152.011 42.4296H158.66C158.934 42.4296 159.14 42.2239 159.14 41.9497V33.8842C159.14 33.6101 158.934 33.4044 158.66 33.4044H152.011C151.737 33.4044 151.531 33.1988 151.531 32.9246V28.8347C151.531 27.6466 151.759 26.5042 152.194 25.4532C152.651 24.4021 153.267 23.4654 154.067 22.6885C154.867 21.8888 155.804 21.2719 156.878 20.8149C157.951 20.358 159.094 20.1295 160.282 20.1295H164.28C164.555 20.1295 164.76 19.9238 164.76 19.6497V11.607C164.76 11.3328 164.555 11.1272 164.28 11.1272H160.282C157.86 11.1272 155.552 11.5842 153.405 12.521Z" fill="white"/>
</g>
<defs>
<clipPath id="clip0">
<rect width="216.306" height="60" fill="white"/>
</clipPath>
</defs>
</svg>
