<svg width="53" height="30" viewBox="0 0 53 30" fill="none" xmlns="http://www.w3.org/2000/svg">
<g clip-path="url(#clip0)">
<path d="M34.0594 30H1.41121C0.632013 30 0 29.3669 0 28.5863C0 27.8057 0.632013 27.1726 1.41121 27.1726H34.0594C34.8386 27.1726 35.4706 27.8057 35.4706 28.5863C35.4706 29.3669 34.8386 30 34.0594 30ZM33.7997 25.5247H6.121C5.34181 25.5247 4.7098 24.8916 4.7098 24.111V1.4137C4.7098 0.633131 5.34181 0 6.121 0H40.648C41.4272 0 42.0592 0.633131 42.0592 1.4137V4.33651C42.0592 5.11709 41.4272 5.75022 40.648 5.75022C39.8688 5.75022 39.2367 5.11709 39.2367 4.33651V2.82741H7.53221V22.6973H33.791C34.5702 22.6973 35.2023 23.3304 35.2023 24.111C35.2023 24.8916 34.5789 25.5247 33.7997 25.5247Z" fill="#AEF455"/>
<path d="M49.3492 26.6262H38.0508V9.54903C38.0508 9.16742 38.3452 8.85519 38.7088 8.85519H49.1933C49.5569 8.85519 49.8513 9.16742 49.8513 9.54903V26.6262H49.3492ZM49.8513 6.22726H38.0508C36.8301 6.22726 35.8345 7.21599 35.8345 8.44756V27.6583C35.8345 28.8812 36.8215 29.8786 38.0508 29.8786H49.8513C51.072 29.8786 52.0677 28.8899 52.0677 27.6583V8.43889C52.059 7.21599 51.072 6.22726 49.8513 6.22726Z" fill="#AEF455"/>
<path d="M45.0202 28.3174C45.0202 28.6123 44.7777 28.8552 44.4834 28.8552H43.4098C43.1155 28.8552 42.873 28.6123 42.873 28.3174C42.873 28.0225 43.1155 27.7797 43.4098 27.7797H44.4834C44.7777 27.7797 45.0202 28.0139 45.0202 28.3174Z" fill="#AEF455"/>
</g>
<defs>
<clipPath id="clip0">
<rect width="52.0588" height="30" fill="white"/>
</clipPath>
</defs>
</svg>
