<svg width="20" height="16" viewBox="0 0 20 16" fill="none" xmlns="http://www.w3.org/2000/svg">
<path d="M18.125 0H1.875C0.839844 0 0 0.874837 0 1.95312V13.6719C0 14.7502 0.839844 15.625 1.875 15.625H18.125C19.1602 15.625 20 14.7502 20 13.6719V1.95312C20 0.874837 19.1602 0 18.125 0ZM1.875 1.30208H18.125C18.4688 1.30208 18.75 1.59505 18.75 1.95312V3.6377C17.8945 4.39046 16.6719 5.42806 12.8672 8.57341C12.207 9.11865 10.9062 10.4329 10 10.4167C9.09375 10.4329 7.78906 9.11865 7.13281 8.57341C3.32813 5.42806 2.10547 4.39046 1.25 3.6377V1.95312C1.25 1.59505 1.53125 1.30208 1.875 1.30208ZM18.125 14.3229H1.875C1.53125 14.3229 1.25 14.0299 1.25 13.6719V5.3304C2.14062 6.09131 3.54687 7.26725 6.35547 9.59066C7.15625 10.258 8.57031 11.7269 10 11.7188C11.4219 11.731 12.8242 10.2743 13.6445 9.59066C16.4531 7.26725 17.8594 6.09131 18.75 5.3304V13.6719C18.75 14.0299 18.4688 14.3229 18.125 14.3229Z" fill="#002A60"/>
</svg>
