<svg width="35" height="45" viewBox="0 0 35 45" fill="none" xmlns="http://www.w3.org/2000/svg">
<path d="M7.29167 17.6666C7.30862 21.0674 7.24983 28.0425 4.23345 38.2776H30.7649C27.7513 28.0806 27.6919 21.0889 27.7083 17.6666L31.4427 13.8967C31.6458 13.6916 31.8069 13.4482 31.9169 13.1803C32.0268 12.9123 32.0834 12.6252 32.0833 12.3351V2.20832C32.0833 0.988685 31.104 0 29.8958 0H5.10417C3.89603 0 2.91667 0.988685 2.91667 2.20832V12.3352C2.91667 12.9209 3.14717 13.4826 3.55733 13.8968L7.29167 17.6666ZM5.83333 2.94443H10.2083V7.36108H13.125V2.94443H21.875V7.36108H24.7917V2.94443H29.1667V12.0303L24.7975 16.4411C24.7795 20.2045 24.6922 26.2255 26.9423 35.3332H8.05401C10.3063 26.2062 10.221 20.2017 10.2022 16.4409L5.83333 12.0303V2.94443ZM20.0521 23.5555H14.9479V18.4027C14.9479 16.9798 16.0905 15.8263 17.5 15.8263C18.9095 15.8263 20.0521 16.9798 20.0521 18.4027V23.5555ZM35 42.3262V43.0623C35 43.6721 34.5103 44.1665 33.9062 44.1665H1.09375C0.489727 44.1665 0 43.6721 0 43.0623V42.3262C0 41.7164 0.489727 41.222 1.09375 41.222H33.9062C34.5103 41.222 35 41.7164 35 42.3262Z" fill="#AEF455"/>
</svg>
