<svg width="46" height="21" viewBox="0 0 46 21" fill="none" xmlns="http://www.w3.org/2000/svg">
<mask id="path-1-inside-1" fill="white">
<path fill-rule="evenodd" clip-rule="evenodd" d="M10.5 1.25211e-07C10.6676 1.2721e-07 10.8343 0.00392736 11 0.011696L11 1.31174e-07L35.5 4.23333e-07L36 4.29296e-07L36 0.0116963C41.5668 0.272673 46 4.86862 46 10.5C46 16.1314 41.5668 20.7273 36 20.9883L36 21L35.5 21L11 21L11 20.9883C10.8343 20.9961 10.6676 21 10.5 21C4.70101 21 5.6059e-08 16.299 1.25211e-07 10.5C1.94364e-07 4.70101 4.70101 5.6059e-08 10.5 1.25211e-07Z"/>
</mask>
<path d="M11 0.011696L10.9532 1.0106L12 1.05968L12 0.011696L11 0.011696ZM11 1.31174e-07L11 -1L10 -1L10 1.19249e-07L11 1.31174e-07ZM36 4.29296e-07L37 4.41221e-07L37 -1L36 -1L36 4.29296e-07ZM36 0.0116963L35 0.0116963L35 0.965914L35.9532 1.0106L36 0.0116963ZM36 20.9883L35.9532 19.9894L35 20.0341L35 20.9883L36 20.9883ZM36 21L36 22L37 22L37 21L36 21ZM11 21L10 21L10 22L11 22L11 21ZM11 20.9883L12 20.9883L12 19.9403L10.9532 19.9894L11 20.9883ZM11.0468 -0.987207C10.8655 -0.995706 10.6832 -1 10.5 -1L10.5 1C10.652 1 10.8031 1.00356 10.9532 1.0106L11.0468 -0.987207ZM10 1.19249e-07L10 0.011696L12 0.011696L12 1.43099e-07L10 1.19249e-07ZM35.5 -1L11 -1L11 1L35.5 1L35.5 -1ZM36 -1L35.5 -1L35.5 1L36 1L36 -1ZM37 0.0116963L37 4.41221e-07L35 4.17371e-07L35 0.0116963L37 0.0116963ZM35.9532 1.0106C40.989 1.24668 45 5.40522 45 10.5L47 10.5C47 4.33202 42.1446 -0.701337 36.0468 -0.987207L35.9532 1.0106ZM45 10.5C45 15.5948 40.989 19.7533 35.9532 19.9894L36.0468 21.9872C42.1446 21.7013 47 16.668 47 10.5L45 10.5ZM37 21L37 20.9883L35 20.9883L35 21L37 21ZM35.5 22L36 22L36 20L35.5 20L35.5 22ZM11 22L35.5 22L35.5 20L11 20L11 22ZM10 20.9883L10 21L12 21L12 20.9883L10 20.9883ZM10.5 22C10.6832 22 10.8655 21.9957 11.0468 21.9872L10.9532 19.9894C10.8031 19.9964 10.652 20 10.5 20L10.5 22ZM-1 10.5C-1 16.8513 4.14873 22 10.5 22L10.5 20C5.25329 20 1 15.7467 1 10.5L-1 10.5ZM10.5 -1C4.14873 -1 -1 4.14873 -1 10.5L1 10.5C1 5.25329 5.2533 1 10.5 1L10.5 -1Z" fill="#AEF455" mask="url(#path-1-inside-1)"/>
<path d="M37.3536 10.3536C37.5488 10.1583 37.5488 9.84171 37.3536 9.64645L34.1716 6.46447C33.9763 6.2692 33.6597 6.2692 33.4645 6.46447C33.2692 6.65973 33.2692 6.97631 33.4645 7.17157L36.2929 10L33.4645 12.8284C33.2692 13.0237 33.2692 13.3403 33.4645 13.5355C33.6597 13.7308 33.9763 13.7308 34.1716 13.5355L37.3536 10.3536ZM10 10.5L37 10.5L37 9.5L10 9.5L10 10.5Z" fill="#AEF455"/>
</svg>
