<svg width="18" height="16" viewBox="0 0 18 16" fill="none" xmlns="http://www.w3.org/2000/svg">
<path d="M16.1498 3.78853C16.1612 3.95479 16.1612 4.12108 16.1612 4.28734C16.1612 9.3585 12.4493 15.2017 5.66499 15.2017C3.57488 15.2017 1.63326 14.5722 0 13.4796C0.296966 13.5152 0.582471 13.5271 0.890863 13.5271C2.61546 13.5271 4.20305 12.9214 5.47083 11.8882C3.84899 11.8525 2.48985 10.7481 2.02156 9.22788C2.25001 9.26349 2.47842 9.28725 2.71829 9.28725C3.0495 9.28725 3.38074 9.23973 3.6891 9.15663C1.99875 8.80031 0.730936 7.25641 0.730936 5.39183V5.34434C1.22204 5.62938 1.79315 5.80752 2.39844 5.83124C1.40478 5.14241 0.753788 3.96667 0.753788 2.63651C0.753788 1.92395 0.936496 1.27075 1.25631 0.700684C3.07232 3.02844 5.80203 4.54858 8.86293 4.71487C8.80583 4.42984 8.77155 4.13296 8.77155 3.83605C8.77155 1.72204 10.4162 0 12.4607 0C13.5228 0 14.4822 0.463174 15.1561 1.21138C15.9898 1.04512 16.7893 0.724446 17.4975 0.285033C17.2233 1.17578 16.6409 1.92398 15.8756 2.399C16.618 2.31591 17.3376 2.10209 18 1.80521C17.4975 2.56526 16.8693 3.24218 16.1498 3.78853Z" fill="white"/>
</svg>
