<svg width="21" height="15" viewBox="0 0 21 15" fill="none" xmlns="http://www.w3.org/2000/svg">
<path d="M20.0866 2.34699C19.8506 1.42316 19.1554 0.695586 18.2728 0.448672C16.6729 0 10.2576 0 10.2576 0C10.2576 0 3.84236 0 2.24245 0.448672C1.3598 0.695625 0.664628 1.42316 0.428686 2.34699C0 4.02148 0 7.51516 0 7.51516C0 7.51516 0 11.0088 0.428686 12.6833C0.664628 13.6071 1.3598 14.3044 2.24245 14.5513C3.84236 15 10.2576 15 10.2576 15C10.2576 15 16.6729 15 18.2728 14.5513C19.1554 14.3044 19.8506 13.6071 20.0866 12.6833C20.5152 11.0088 20.5152 7.51516 20.5152 7.51516C20.5152 7.51516 20.5152 4.02148 20.0866 2.34699ZM8.15946 10.6871V4.34316L13.5214 7.51523L8.15946 10.6871Z" fill="white"/>
</svg>
