<svg width="18" height="19" viewBox="0 0 18 19" fill="none" xmlns="http://www.w3.org/2000/svg">
<path d="M18 1.03198V17.6816C18 18.254 17.554 18.7136 17.0076 18.7136H12.4192V11.4688H14.7576L15.1071 8.64444H12.4152V6.83951C12.4152 6.02061 12.6321 5.46492 13.7612 5.46492H15.1996V2.93719C14.9504 2.90376 14.0987 2.82438 13.1022 2.82438C11.029 2.82438 9.6067 4.14047 9.6067 6.55958V8.64444H7.26027V11.4688H9.6067V18.7178H0.992411C0.445982 18.7178 0 18.254 0 17.6858V1.03198C0 0.463766 0.445982 0 0.992411 0H17.0036C17.554 0 18 0.463766 18 1.03198Z" fill="white"/>
</svg>
