<svg width="22" height="18" viewBox="0 0 22 18" fill="none" xmlns="http://www.w3.org/2000/svg">
<path d="M21.4286 15.3214C21.4286 14.8331 21.024 14.4286 20.5357 14.4286H0.892857C0.404576 14.4286 0 14.8331 0 15.3214V17.1071C0 17.5954 0.404576 18 0.892857 18H20.5357C21.024 18 21.4286 17.5954 21.4286 17.1071V15.3214ZM21.4286 8.17857C21.4286 7.69029 21.024 7.28571 20.5357 7.28571H0.892857C0.404576 7.28571 0 7.69029 0 8.17857V9.96429C0 10.4526 0.404576 10.8571 0.892857 10.8571H20.5357C21.024 10.8571 21.4286 10.4526 21.4286 9.96429V8.17857ZM21.4286 1.03571C21.4286 0.547432 21.024 0.142857 20.5357 0.142857H0.892857C0.404576 0.142857 0 0.547432 0 1.03571V2.82143C0 3.30971 0.404576 3.71429 0.892857 3.71429H20.5357C21.024 3.71429 21.4286 3.30971 21.4286 2.82143V1.03571Z" fill="white"/>
</svg>
