<svg width="18" height="19" viewBox="0 0 18 19" fill="none" xmlns="http://www.w3.org/2000/svg">
<path d="M9.00201 4.55893C6.44808 4.55893 4.38806 6.70112 4.38806 9.35693C4.38806 12.0127 6.44808 14.1549 9.00201 14.1549C11.5559 14.1549 13.616 12.0127 13.616 9.35693C13.616 6.70112 11.5559 4.55893 9.00201 4.55893ZM9.00201 12.4763C7.35159 12.4763 6.00234 11.0774 6.00234 9.35693C6.00234 7.6365 7.34757 6.23761 9.00201 6.23761C10.6564 6.23761 12.0017 7.6365 12.0017 9.35693C12.0017 11.0774 10.6524 12.4763 9.00201 12.4763ZM14.8809 4.36267C14.8809 4.98487 14.399 5.48179 13.8047 5.48179C13.2064 5.48179 12.7285 4.98069 12.7285 4.36267C12.7285 3.74465 13.2104 3.24356 13.8047 3.24356C14.399 3.24356 14.8809 3.74465 14.8809 4.36267ZM17.9368 5.49849C17.8685 3.99938 17.5392 2.67147 16.4831 1.57741C15.431 0.483349 14.154 0.140933 12.7124 0.0657689C11.2267 -0.021923 6.77334 -0.021923 5.28756 0.0657689C3.84997 0.136758 2.57301 0.479174 1.5169 1.57323C0.460792 2.6673 0.135527 3.9952 0.063246 5.49431C-0.021082 7.03936 -0.021082 11.6703 0.063246 13.2154C0.131511 14.7145 0.460792 16.0424 1.5169 17.1365C2.57301 18.2305 3.84596 18.5729 5.28756 18.6481C6.77334 18.7358 11.2267 18.7358 12.7124 18.6481C14.154 18.5771 15.431 18.2347 16.4831 17.1365C17.5352 16.0424 17.8645 14.7145 17.9368 13.2154C18.0211 11.6703 18.0211 7.04354 17.9368 5.49849ZM16.0173 14.8732C15.7041 15.6916 15.0977 16.3222 14.3066 16.6521C13.122 17.1406 10.3111 17.0279 9.00201 17.0279C7.69292 17.0279 4.87797 17.1365 3.69738 16.6521C2.91032 16.3264 2.30396 15.6958 1.98673 14.8732C1.5169 13.6413 1.62532 10.7182 1.62532 9.35693C1.62532 7.99562 1.52091 5.06838 1.98673 3.8407C2.29994 3.02224 2.9063 2.39169 3.69738 2.0618C4.88199 1.57323 7.69292 1.68598 9.00201 1.68598C10.3111 1.68598 13.126 1.57741 14.3066 2.0618C15.0937 2.38752 15.7001 3.01806 16.0173 3.8407C16.4871 5.07256 16.3787 7.99562 16.3787 9.35693C16.3787 10.7182 16.4871 13.6455 16.0173 14.8732Z" fill="white"/>
</svg>
