<svg width="22" height="32" viewBox="0 0 22 32" fill="none" xmlns="http://www.w3.org/2000/svg">
<path d="M19 0H3C1.34 0 0 1.34 0 3V29C0 30.66 1.34 32 3 32H19C20.66 32 22 30.66 22 29V3C22 1.34 20.66 0 19 0ZM20 29C20 29.55 19.55 30 19 30H3C2.45 30 2 29.55 2 29V27H20V29ZM20 26H2V6H20V26ZM20 5H2V3C2 2.45 2.45 2 3 2H19C19.55 2 20 2.45 20 3V5Z" fill="#AEF455"/>
<path d="M13 3.5C13 3.78 12.78 4 12.5 4H9.5C9.22 4 9 3.78 9 3.5C9 3.22 9.22 3 9.5 3H12.5C12.78 3 13 3.22 13 3.5Z" fill="#AEF455"/>
<path d="M12 28.5C12 28.78 11.78 29 11.5 29H10.5C10.22 29 10 28.78 10 28.5C10 28.22 10.22 28 10.5 28H11.5C11.78 28 12 28.22 12 28.5Z" fill="#AEF455"/>
</svg>
