<svg width="15" height="26" viewBox="0 0 15 26" fill="none" xmlns="http://www.w3.org/2000/svg">
<path d="M10.5 4.82143V16.875H4.5V4.82143H10.5ZM12.75 0H2.25C1.00781 0 0 1.0798 0 2.41071V23.3036C0 24.6345 1.00781 25.7143 2.25 25.7143H12.75C13.9922 25.7143 15 24.6345 15 23.3036V2.41071C15 1.0798 13.9922 0 12.75 0ZM2.25 24.1071C1.8375 24.1071 1.5 23.7455 1.5 23.3036V2.41071C1.5 1.96875 1.8375 1.60714 2.25 1.60714H12.75C13.1625 1.60714 13.5 1.96875 13.5 2.41071V23.3036C13.5 23.7455 13.1625 24.1071 12.75 24.1071H2.25ZM11.4375 3.21429H3.5625C3.25312 3.21429 3 3.48549 3 3.81696V17.8795C3 18.2109 3.25312 18.4821 3.5625 18.4821H11.4375C11.7469 18.4821 12 18.2109 12 17.8795V3.81696C12 3.48549 11.7469 3.21429 11.4375 3.21429ZM9.1875 20.8929H5.8125C5.50313 20.8929 5.25 21.1641 5.25 21.4955V21.8973C5.25 22.2288 5.50313 22.5 5.8125 22.5H9.1875C9.49687 22.5 9.75 22.2288 9.75 21.8973V21.4955C9.75 21.1641 9.49687 20.8929 9.1875 20.8929Z" fill="#002A60"/>
</svg>
