<svg width="15" height="22" viewBox="0 0 15 22" fill="none" xmlns="http://www.w3.org/2000/svg">
<path d="M7.5 4.05C5.43223 4.05 3.75 5.86681 3.75 8.1C3.75 10.3332 5.43223 12.15 7.5 12.15C9.56777 12.15 11.25 10.3332 11.25 8.1C11.25 5.86681 9.56777 4.05 7.5 4.05ZM7.5 10.8C6.12148 10.8 5 9.5888 5 8.1C5 6.61121 6.12148 5.4 7.5 5.4C8.87852 5.4 10 6.61121 10 8.1C10 9.5888 8.87852 10.8 7.5 10.8ZM7.5 0C3.35785 0 0 3.62648 0 8.1C0 11.3659 1.05352 12.2779 6.72922 21.1642C7.10164 21.7452 7.89832 21.7453 8.27082 21.1642C13.9465 12.2779 15 11.3659 15 8.1C15 3.62648 11.6421 0 7.5 0ZM7.5 19.994C2.05879 11.4956 1.25 10.8208 1.25 8.1C1.25 6.29699 1.90012 4.60194 3.08059 3.32703C4.26105 2.05213 5.83055 1.35 7.5 1.35C9.16945 1.35 10.7389 2.05213 11.9194 3.32703C13.0999 4.60194 13.75 6.29699 13.75 8.1C13.75 10.8207 12.9417 11.4948 7.5 19.994Z" fill="#002A60"/>
</svg>
