<svg width="93" height="80" viewBox="0 0 93 80" fill="none" xmlns="http://www.w3.org/2000/svg">
<path d="M38.25 57.5156C37.7812 60.5156 37.0312 63.375 36 66.0938C34.9688 68.7188 33.7031 71.0625 32.2031 73.125C30.7031 75.1875 29.0625 76.8281 27.2812 78.0469C25.5938 79.1719 23.8594 79.7344 22.0781 79.7344C18.7031 79.7344 15.2344 79.2188 11.6719 78.1875C8.20312 77.1562 5.48438 75.4219 3.51562 72.9844C2.95312 72.1406 2.39062 71.1562 1.82812 70.0312C1.26562 68.9062 0.84375 67.5469 0.5625 65.9531C0.28125 64.3594 0.09375 62.4375 0 60.1875C0 57.9375 0.234375 55.3125 0.703125 52.3125C1.26562 48 2.15625 43.8281 3.375 39.7969C4.59375 35.7656 6.46875 31.6406 9 27.4219C11.625 23.2031 15.0469 18.8906 19.2656 14.4844C23.5781 9.98438 29.0625 5.15625 35.7188 0L43.0312 10.2656C34.7812 16.4531 28.875 21.9375 25.3125 26.7188C21.8438 31.4062 19.875 35.5312 19.4062 39.0938C19.2188 40.7812 19.7344 42.0938 20.9531 43.0312C22.1719 43.9688 23.7656 44.7188 25.7344 45.2812C29.8594 46.3125 33.0469 47.9531 35.2969 50.2031C37.6406 52.3594 38.625 54.7969 38.25 57.5156ZM87.4688 57.5156C87 60.5156 86.25 63.375 85.2188 66.0938C84.1875 68.7188 82.9219 71.0625 81.4219 73.125C79.9219 75.1875 78.2812 76.8281 76.5 78.0469C74.8125 79.1719 73.0781 79.7344 71.2969 79.7344C67.9219 79.7344 64.4531 79.2188 60.8906 78.1875C57.4219 77.1562 54.7031 75.4219 52.7344 72.9844C52.1719 72.1406 51.6094 71.1562 51.0469 70.0312C50.4844 68.9062 50.0625 67.5469 49.7812 65.9531C49.5 64.3594 49.3125 62.4375 49.2188 60.1875C49.2188 57.9375 49.4531 55.3125 49.9219 52.3125C50.4844 48 51.375 43.8281 52.5938 39.7969C53.8125 35.7656 55.6875 31.6406 58.2188 27.4219C60.8438 23.2031 64.2656 18.8906 68.4844 14.4844C72.7969 9.98438 78.2812 5.15625 84.9375 0L92.25 10.2656C84 16.4531 78.0938 21.9375 74.5312 26.7188C71.0625 31.4062 69.0938 35.5312 68.625 39.0938C68.4375 40.7812 68.9531 42.0938 70.1719 43.0312C71.3906 43.9688 72.9844 44.7188 74.9531 45.2812C79.0781 46.3125 82.2656 47.9531 84.5156 50.2031C86.8594 52.3594 87.8438 54.7969 87.4688 57.5156Z" fill="#AEF455"/>
</svg>
